<?xml version="1.0" encoding="UTF-8"?><svg xmlns="http://www.w3.org/2000/svg" viewBox="0 0 146 146"><defs><style>.c{fill:#fff;}</style></defs><g id="a"/><g id="b"><path class="c" d="M130.21,88.88l-15.87-15.87,15.88-15.88c14-14,16.15-34.76,4.78-46.13C123.63-.37,102.88,1.79,88.88,15.79l-15.88,15.88-15.88-15.88C43.12,1.79,22.36-.37,11,11-.37,22.37,1.79,43.12,15.79,57.12l15.88,15.88-15.88,15.88C1.79,102.88-.37,123.63,10.99,135c11.37,11.37,32.13,9.22,46.13-4.78l15.88-15.88,15.87,15.87c14,14,34.75,16.15,46.12,4.79s9.21-32.12-4.79-46.12"/></g></svg>