<?xml version="1.0" encoding="UTF-8"?><svg xmlns="http://www.w3.org/2000/svg" viewBox="0 0 414 760"><defs><style>.c{fill:#eab940;}.d{fill:#90a29e;}.e{fill:#b06349;}.f{fill:#405740;}.g{fill:#9a9a4c;}.h{fill:#567857;}</style></defs><g id="a"><rect class="f" x="-14.03" y="-10.47" width="439.17" height="785.53"/></g><g id="b"><circle class="h" cx="357.11" cy="652.64" r="104.11"/><circle class="e" cx="310.94" cy="187.13" r="93.1"/><path class="g" d="M436.5,335.09l-16.91,4.89-4.89-16.91c-4.32-14.91-17.76-24.24-29.87-20.73-12.1,3.5-18.47,18.56-14.16,33.48l4.89,16.91-16.91,4.9c-14.91,4.31-24.24,17.75-20.74,29.86,3.5,12.1,18.57,18.48,33.48,14.16l16.91-4.9,4.89,16.91c4.32,14.91,17.75,24.25,29.85,20.74s18.49-18.57,14.17-33.49l-4.89-16.91,16.91-4.89c14.91-4.32,24.24-17.75,20.74-29.85-3.5-12.1-18.57-18.48-33.48-14.16"/><path class="c" d="M11.74,295.57h27.23v27.24c0,24.02,15.96,43.66,35.47,43.66,19.49,0,35.44-19.64,35.44-43.66v-27.24h27.25c24.01,0,43.66-15.96,43.66-35.45,0-19.5-19.65-35.45-43.66-35.45h-27.25v-27.24c0-24.02-15.95-43.67-35.44-43.67-19.51,0-35.47,19.65-35.47,43.67v27.24H11.74c-24.01,0-43.66,15.95-43.66,35.45,0,19.5,19.65,35.45,43.66,35.45"/><path class="d" d="M315.15,391.99c47.25,74.11-.33,172.26-88.18,180.32-48.56,4.45-83.77,26.68-107.42,69.57-27.9,50.61-87.11,73.48-140.17,55.98-53.89-17.77-88.26-70.03-82.35-125.23,6.15-57.51,50.42-101.54,108.76-106.43,48.12-4.04,82.73-26.96,106.33-68.87,44.68-79.33,154.17-81.96,203.03-5.34Z"/><path class="h" d="M214.58,118.31c-47.72,43.3-124.52,21.03-141.2-41.45C64.16,42.31,43.76,19.61,9.84,7.82-30.18-6.09-54.02-46.05-47.93-86.56c6.18-41.14,39.71-72.43,80.33-74.98,42.32-2.66,79.6,23.9,90.35,65.45,8.86,34.28,29.7,56.45,62.9,68.34,62.85,22.5,78.27,101.29,28.93,146.06Z"/></g></svg>