<?xml version="1.0" encoding="utf-8"?>
<!-- Generator: Adobe Illustrator 26.1.0, SVG Export Plug-In . SVG Version: 6.00 Build 0)  -->
<svg version="1.1" id="圖層_1" xmlns="http://www.w3.org/2000/svg" xmlns:xlink="http://www.w3.org/1999/xlink" x="0px" y="0px"
	 viewBox="0 0 414 760" style="enable-background:new 0 0 414 760;" xml:space="preserve">
<style type="text/css">
	.st0{fill:#405740;}
	.st1{clip-path:url(#SVGID_00000140015778805280518810000018386557288859185589_);}
	.st2{fill:#567857;}
	.st3{fill:#B06349;}
	.st4{fill:#9A9A4C;}
	.st5{fill:#EAB940;}
	.st6{fill:#90A29E;}
</style>
<g id="a">
	<rect class="st0" width="414" height="760"/>
</g>
<g>
	<defs>
		<rect id="SVGID_1_" width="414" height="760"/>
	</defs>
	<clipPath id="SVGID_00000016777300204282842820000005134635673642056082_">
		<use xlink:href="#SVGID_1_"  style="overflow:visible;"/>
	</clipPath>
	<g id="b" style="clip-path:url(#SVGID_00000016777300204282842820000005134635673642056082_);">
		<circle class="st2" cx="357.1" cy="652.6" r="104.1"/>
		<circle class="st3" cx="310.9" cy="187.1" r="93.1"/>
		<path class="st4" d="M436.5,335.1l-16.9,4.9l-4.9-16.9c-4.3-14.9-17.8-24.2-29.9-20.7c-12.1,3.5-18.5,18.6-14.2,33.5l4.9,16.9
			l-16.9,4.9c-14.9,4.3-24.2,17.8-20.7,29.9c3.5,12.1,18.6,18.5,33.5,14.2l16.9-4.9l4.9,16.9c4.3,14.9,17.8,24.2,29.9,20.7
			s18.5-18.6,14.2-33.5l-4.9-16.9l16.9-4.9c14.9-4.3,24.2-17.8,20.7-29.9S451.4,330.8,436.5,335.1"/>
		<path class="st5" d="M11.7,295.6H39v27.2c0,24,16,43.7,35.5,43.7c19.5,0,35.4-19.6,35.4-43.7v-27.2h27.2c24,0,43.7-16,43.7-35.5
			c0-19.5-19.6-35.4-43.7-35.4h-27.2v-27.2c0-24-15.9-43.7-35.4-43.7c-19.5,0-35.5,19.6-35.5,43.7v27.2H11.7
			c-24,0-43.7,15.9-43.7,35.4S-12.3,295.6,11.7,295.6"/>
		<path class="st6" d="M315.1,392c47.2,74.1-0.3,172.3-88.2,180.3c-48.6,4.5-83.8,26.7-107.4,69.6c-27.9,50.6-87.1,73.5-140.2,56
			c-53.9-17.8-88.3-70-82.3-125.2c6.2-57.5,50.4-101.5,108.8-106.4c48.1-4,82.7-27,106.3-68.9C156.8,318,266.3,315.4,315.1,392
			L315.1,392z"/>
		<path class="st2" d="M214.6,118.3c-47.7,43.3-124.5,21-141.2-41.4c-9.2-34.5-29.6-57.2-63.5-69C-30.2-6.1-54-46-47.9-86.6
			c6.2-41.1,39.7-72.4,80.3-75c42.3-2.7,79.6,23.9,90.3,65.4c8.9,34.3,29.7,56.5,62.9,68.3C248.5-5.3,263.9,73.5,214.6,118.3
			L214.6,118.3z"/>
	</g>
</g>
</svg>
