<?xml version="1.0" encoding="UTF-8"?><svg xmlns="http://www.w3.org/2000/svg" viewBox="0 0 1920 1080"><defs><style>.c{fill:#eab940;}.d{fill:#90a29e;}.e{fill:#b06349;}.f{fill:#405740;}.g{fill:#3e3a39;}.h{fill:#9a9a4c;}.i{fill:#567857;}</style></defs><g id="a"><rect class="f" x="-14.67" y="-19.04" width="1948.81" height="1118.52"/></g><g id="b"><circle class="i" cx="1627.05" cy="800.29" r="245.06"/><circle class="e" cx="552.46" cy="301.3" r="211.77"/><path class="h" d="M1759.34,317.62l-36.62,7.96-7.96-36.63c-7.02-32.3-34.23-54.06-60.47-48.35-26.22,5.7-41.92,36.78-34.9,69.08l7.96,36.63-36.64,7.97c-32.29,7.02-54.06,34.23-48.36,60.45,5.7,26.22,36.8,41.93,69.09,34.91l36.64-7.97,7.96,36.63c7.02,32.3,34.22,54.07,60.43,48.37,26.23-5.7,41.96-36.8,34.93-69.1l-7.96-36.63,36.62-7.96c32.3-7.02,54.06-34.22,48.36-60.44-5.7-26.22-36.79-41.94-69.09-34.92"/><path class="c" d="M96.99,737.03l56.65,56.64-56.66,56.66c-49.96,49.96-57.62,124.03-17.04,164.6,40.55,40.54,114.58,32.85,164.54-17.11l56.66-56.66,56.68,56.67c49.95,49.94,124.02,57.63,164.57,17.08,40.56-40.56,32.85-114.62-17.09-164.57l-56.68-56.67,56.65-56.66c49.96-49.96,57.66-124.01,17.12-164.56-40.57-40.57-114.66-32.9-164.62,17.07l-56.65,56.66-56.65-56.64c-49.95-49.95-124.01-57.64-164.56-17.08-40.55,40.56-32.87,114.62,17.08,164.57"/><path class="d" d="M1451.3,246.56c125.17,155.24,42.53,388.49-153.51,428.74-108.38,22.25-182.19,81.2-224.72,183.86-50.18,121.12-177.94,187.56-301.99,161.45-125.98-26.52-216.6-135.72-217.15-261.68-.58-131.22,88.17-241.62,218.49-267.32,107.5-21.2,179.76-81.58,222.45-182,80.82-190.1,327.03-223.55,456.44-63.05Z"/><g><g><path class="g" d="M1445.57,911.59h4.7v-38.21l-5.23-3.17h23.39l-5.23,3.17v38.21h4.7v.94h-22.34v-.94Z"/><path class="g" d="M1507.17,911.59v.94h-17.05v-.94h2.35v-17.69c0-4.59-1.12-6.11-3.53-6.11-1.18,0-2.35,.35-3.53,.88v22.93h2.35v.94h-17.05v-.94h2.94v-21.46l-3.35-2.88,15.11-5.29v5.88c3.82-3.29,7.23-5.58,11.23-5.58,5,0,7.58,3.12,7.58,9.11v20.22h2.94Z"/><path class="g" d="M1509.7,898.42c.06-8.64,6.23-15.87,16.22-15.87,3.35,0,6.29,.47,10.11,1.88l-2.29,16.4h-.06c-5.47-10.35-10.58-15.99-14.11-15.99-1.47,0-2.35,1.06-2.35,3.17,0,9.46,9.29,19.46,17.57,19.46,.76,0,1.24-.06,1.76-.24l.06,.06c-2.65,4-6.94,5.82-12.17,5.82-7.99,0-14.81-5.64-14.75-14.7Z"/><path class="g" d="M1538.97,911.59h2.94v-34.98l-3.35-2.88,15.11-5.29v43.15h2.94v.94h-17.63v-.94Z"/><path class="g" d="M1594.1,911.59v.94h-14.69v-4.53c-3.88,2.82-7.23,5.17-10.52,5.17-5.29,0-7.58-3.06-7.58-10.05v-12.64l-3.35-2.88,15.11-5.29v18.46c0,4.94,.41,6.88,3.35,6.88,.94,0,2-.24,3-.59v-16.87l-3.35-2.88,15.11-5.29v29.57h2.94Z"/><path class="g" d="M1596.63,911.59l1.82-9.58h.06l7.29,9.76c.82,.24,1.23,.29,1.94,.29,2.59,0,4.35-1.35,4.35-3.76,0-1.76-1.06-2.76-3.53-4.06l-3.88-2.06c-4.88-2.59-7.23-5.35-7.23-9.82,0-5.94,4.82-9.82,12.64-9.82,3.82,0,6.88,.65,9.76,1.7l-2.29,9.29h-.06l-6.82-9.7c-.29-.12-.71-.18-1-.18-2.59,0-3.88,1.47-3.88,3.12,0,2.06,.94,3.53,4.41,5.35l4.41,2.35c4.06,2.18,6.17,5.11,6.17,8.76,0,6.11-6.17,9.88-13.4,9.88-2.76,0-6.64-.29-10.76-1.53Z"/><path class="g" d="M1622.78,911.59h2.94v-21.46l-3.35-2.88,15.11-5.29v29.63h2.94v.94h-17.63v-.94Zm2.29-37.21c0-3.88,2.35-6.52,6.52-6.52s6.52,2.65,6.52,6.52-2.35,6.58-6.52,6.58-6.52-2.65-6.52-6.58Z"/><path class="g" d="M1643.53,897.66c0-8.41,6.58-15.11,16.16-15.11s16.69,5.88,16.69,15.11c0,8.58-5.47,15.46-16.64,15.46-8.46,0-16.22-6-16.22-15.46Zm25.22,10.35c0-4.94-9.88-23.34-15.05-23.34-1.47,0-2.35,1.06-2.35,2.88,0,5.76,10.17,23.45,14.99,23.45,1.59,0,2.41-1,2.41-3Z"/><path class="g" d="M1716.01,911.59v.94h-17.05v-.94h2.35v-17.69c0-4.59-1.12-6.11-3.53-6.11-1.18,0-2.35,.35-3.53,.88v22.93h2.35v.94h-17.05v-.94h2.94v-21.46l-3.35-2.88,15.11-5.29v5.88c3.82-3.29,7.23-5.58,11.23-5.58,5,0,7.58,3.12,7.58,9.11v20.22h2.94Z"/></g><g><path class="g" d="M1667.04,875.42c2.56,0,2.95-.6,3.28-3.58,.72,.45,1.9,.84,2.71,.99-.51,4.06-1.57,5.21-5.84,5.21h-10.65c-5.03,0-6.5-.9-6.5-4.63v-12.61c-.81,.87-1.69,1.71-2.53,2.41-.48-.51-1.63-1.63-2.32-2.08,3.28-2.38,6.23-6.2,7.94-10.2l2.83,.81c-.48,1.11-1.02,2.23-1.66,3.28h16.22s-.03,.87-.03,1.23c-.33,9.69-.6,13.21-1.44,14.29-.57,.78-1.14,1.02-2.02,1.14-.78,.12-2.08,.12-3.46,.06-.03-.78-.33-1.96-.72-2.65,1.17,.12,2.26,.15,2.77,.12,.39,.03,.69-.06,.96-.42,.48-.66,.78-3.52,1.05-11.13h-15.08c-.66,.93-1.38,1.87-2.11,2.68h11.98v9.18h-9.63v3.88c0,1.65,.51,2.02,3.67,2.02h10.56Zm-14.23-12.61v4.21h6.89v-4.21h-6.89Z"/><path class="g" d="M1691.36,860.98c-.18,.27-.33,.54-.51,.81,3.37,3.64,7.49,5.93,12.25,7.7-.66,.6-1.42,1.53-1.78,2.35-1.23-.54-2.41-1.11-3.52-1.72v8.46h-2.86v-.84h-11.38v.93h-2.74v-8.22c-1.17,.66-2.41,1.26-3.64,1.75-.39-.69-1.14-1.66-1.77-2.26,5.51-1.96,10.71-5.54,13.51-9.99l2.44,1.02Zm-11.89-1.47h-2.74v-5.84h11.34c-.3-.75-.66-1.53-1.02-2.23l2.89-.63c.51,.84,1.08,1.96,1.41,2.86h10.47v5.84h-2.83v-3.31h-19.53v3.31Zm7.25-1.35c-1.93,2.62-4.97,5.15-7.7,6.65-.39-.51-1.35-1.59-1.93-2.11,2.65-1.26,5.39-3.31,7.01-5.42l2.62,.87Zm8.22,17.12v-4.21h-11.38v4.21h11.38Zm.27-6.68c-2.11-1.35-4.03-2.92-5.87-4.91-1.56,1.84-3.4,3.49-5.45,4.91h11.32Zm-1.78-11.29c2.62,1.53,6.02,3.94,7.67,5.63l-2.02,1.84c-1.56-1.68-4.87-4.21-7.58-5.9l1.93-1.57Z"/></g></g><g><g><path class="g" d="M732.82,877.59c10.74,13.74,7.15,28.87-8.16,40.83l-19.19,14.99-.72-.93,4.64-3.62-29.44-37.69-7.61,.9,20.47-15.99c15.25-11.91,29.69-11.71,40.02,1.51Zm-13.29,10.48c-9.92-12.7-19.51-16.13-27.11-10.2l-1.45,1.13,31.17,39.89,.93-.72c7.48-5.84,6.52-17.23-3.54-30.11Z"/><path class="g" d="M725.24,857.37c-2.99-3.83-2.71-8.25,1.41-11.46,4.12-3.22,8.48-2.42,11.46,1.41,3.04,3.89,2.75,8.31-1.36,11.52-4.12,3.22-8.47,2.42-11.51-1.47Zm26.41,38.47l2.9-2.26-16.53-21.16-5.53-.26,10.82-16.86,22.83,29.22,2.9-2.26,.72,.93-17.39,13.59-.72-.93Z"/><path class="g" d="M782.24,827.68l-1.66,5.88,7.73,36.54-1.51,1.18-32.95-16.84-6.1,.19,20.24-15.81-1.66,5.88,17.87,11.16-6.56-19.99-6.28,.33,10.9-8.52Z"/><path class="g" d="M825.24,831.44c.46,5.61-1.79,10.74-7.18,14.95-8.18,6.39-19.34,5.96-26.36-3.03-6.61-8.46-6.41-19.92,2.87-27.17,5.45-4.26,11.71-4.01,15.02,.22,3.76,4.81,3.36,11.94-1.56,19.99,5.84,.66,11.69-.45,15.58-3.49,.58-.45,1.11-.96,1.55-1.49h.1Zm-34.19-3.71c3.76,4.81,10.06,7.73,16.35,8.61,0-3.36-1.18-6.17-3.49-9.13-3.94-5.04-10.66-6.71-13.15-4.76-1.51,1.18-1.38,3.13,.29,5.28Z"/><path class="g" d="M833.32,786.09l12,15.37-.06,.05c-11.24-1.96-15.14-1.34-16.9,.6l16.4,20.99,4.35-3.4,.72,.93-18.84,14.72-.72-.93,2.9-2.26-16.44-21.05-5.52-.26,11.01-16.63,5.66,7.25c-.09-6.93,1.55-12.6,4.21-14.69,.41-.32,.8-.53,1.24-.69Z"/><path class="g" d="M858.56,812.31l-5.59-10.86,.06-.05,14.71,4.01c.99-.4,1.44-.66,2.14-1.21,2.55-1.99,3.25-4.69,1.39-7.06-1.36-1.74-3.17-1.91-6.61-1.28l-5.41,.96c-6.81,1.21-11.25,.3-14.7-4.11-4.57-5.86-2.81-13.4,4.9-19.42,3.77-2.94,7.28-4.66,10.94-5.84l4.9,10.93-.06,.05-14.2-4.31c-.38,.11-.83,.37-1.12,.6-2.55,1.99-2.69,4.44-1.43,6.06,1.59,2.03,3.64,2.75,8.47,1.88l6.16-1.08c5.68-.98,10.03,.29,12.84,3.88,4.71,6.03,1.52,14.5-5.61,20.07-2.73,2.13-6.78,4.83-11.79,6.78Z"/><path class="g" d="M857.95,753.68c-2.99-3.83-2.71-8.25,1.41-11.46,4.12-3.22,8.48-2.42,11.46,1.41,3.04,3.89,2.75,8.31-1.36,11.52-4.12,3.22-8.47,2.42-11.51-1.47Zm26.41,38.47l2.9-2.26-16.53-21.16-5.52-.26,10.83-16.86,22.83,29.22,2.9-2.26,.72,.93-17.4,13.59-.72-.93Z"/><path class="g" d="M925.04,753.28c.53,5.1-1.35,10.58-6.69,14.75-6.9,5.39-12.8,3.46-18.69-4.08l-12.87-16.47-4.46,3.49-.05-.06,6.19-25.19,9.2,11.77,8.18-6.39,.73,.93-8.18,6.39,10.55,13.51c5.25,6.73,8.77,8,13.06,4.64,1.28-1,2.12-1.94,2.92-3.31h.1Z"/><path class="g" d="M941.86,702.98l-1.66,5.88,7.39,35.4,4.92,20.53-17.04,.89,10.85-20.89-33.44-14.59-6.16,.24,20.35-15.9-1.66,5.88,18.35,10.22-6.46-19.51-6.69,.65,11.25-8.79Z"/></g><g><path class="g" d="M900.69,797.84c1.32,7.9-3.02,16.42-8.4,22.83-.63-.42-1.77-.95-2.5-1.1,2.5-2.76,4.73-6.02,6.3-9.39-1.58-.07-3.77,.16-5.61,.49-.56,1.24-1.21,2.51-1.97,3.83-.72-.28-2-.5-2.75-.49,3.08-4.66,4.45-9.17,4.5-12.38l2.87-1.36c-.06,.81-.14,1.63-.26,2.45l5.45-4.26,.28-.37,2.09-.26Zm-8.63,8.5c-.16,.58-.36,1.2-.58,1.79,1.95-.38,4.21-.62,5.67-.57,.72-2.06,1.15-4.15,1.18-6.12l-6.26,4.89Zm18.42-2.82c2.47,9.18-2.37,17.59-9.35,24.84-.61-.48-1.75-1.07-2.52-1.27,3.27-3.2,6.05-6.67,7.81-10.34-1.74-.13-4.29-.01-6.32,.32-.71,1.43-1.54,2.92-2.5,4.43-.63-.31-1.91-.64-2.66-.67,3.72-5.35,5.38-10.42,5.44-14.1l2.89-1.34c-.05,.96-.15,1.91-.32,2.92l5.15-4.02,.3-.39,2.08-.37Zm-8.4,8.51c-.25,.81-.52,1.59-.83,2.41,2.08-.32,4.59-.53,6.26-.39,.75-2.26,1.08-4.58,.8-6.89l-6.24,4.87Z"/><path class="g" d="M926.8,779.48l-16.7,13.04-1.67-2.14,16.7-13.04,1.67,2.14Zm11.31,15.95c.88-.69,.54-1.41-2.11-5,.84,0,2.08-.37,2.8-.66,2.97,4.29,3.31,5.89,1.1,7.62l-3.15,2.46c-2.35,1.83-3.54,1.58-5.35-.74l-6.19-7.92-4.06,3.17c3.48,5.34,5.62,10.27,1.79,16.86-.68-.38-1.93-.67-2.77-.7,3.51-5.72,1.56-9.89-1.37-14.32l-5.72,4.47-1.67-2.13,20.84-16.28,1.67,2.13-6.45,5.04,6.17,7.9c.67,.85,.92,.89,1.77,.22l2.68-2.09Z"/></g></g><g><g><path class="g" d="M219.26,718.95c-5.07,4.9-13.48,2.72-21.03-5.1l-16.64-17.23,.69-.66,3.32,3.44,27.93-26.97-1.37-6.06,14.98,15.51c8.17,8.46,10.71,15.73,5.94,20.34-3.65,3.53-8.71,3.1-16.43-2.48,6.08,7.16,7.48,14.53,2.62,19.22Zm-9.67-9.76c5.33-5.14,5.25-10.47,1.77-14.08l-1.16-1.2-15.47,14.94,.87,.9c4.61,4.77,8.96,4.3,13.99-.56Zm14.7-28.89l-13.4,12.95,.75,.77c3.36,3.48,7.22,2.83,11.6-1.4,3.69-3.57,5.58-7.63,1.72-11.63l-.66-.69Z"/><path class="g" d="M236.74,745.99c-4.49,.85-8.82-.53-12.68-4.53-5.85-6.06-6.45-15.11,.21-21.54,6.27-6.06,15.54-6.87,22.18,0,3.9,4.04,4.23,9.11,1.1,12.14-3.57,3.44-9.36,3.72-16.27,.43-.04,4.77,1.36,9.4,4.14,12.28,.42,.43,.87,.82,1.33,1.12v.08Zm.11-27.92c-3.57,3.44-5.39,8.78-5.57,13.93,2.71-.29,4.88-1.48,7.07-3.59,3.74-3.61,4.51-9.17,2.73-11.02-1.08-1.12-2.65-.85-4.24,.69Z"/><path class="g" d="M234.76,750.31l2.07,2.15,25.56-24.69-.26-4.48,14.53,7.31-31.54,30.45,2.07,2.15-.69,.66-12.45-12.89,.69-.66Z"/><path class="g" d="M259.18,755.21c6.14-5.93,15.69-5.85,22.45,1.15,6.85,7.09,7.49,16.35,.74,22.86-6.27,6.06-15.16,6.92-23.04-1.25-5.97-6.19-7.07-16.09-.15-22.77Zm10.24,25.73c3.61-3.49,10.09-23.69,6.44-27.47-1.04-1.07-2.43-.97-3.76,.31-4.21,4.07-9.97,23.99-6.56,27.51,1.12,1.16,2.43,1.06,3.89-.36Z"/><path class="g" d="M300.15,818.02l-.69,.66-12.03-12.46,.69-.66,1.66,1.72,12.93-12.49c3.35-3.24,3.68-5.13,1.98-6.89-.83-.86-1.92-1.47-3.13-1.96l-16.76,16.18,1.66,1.72-.69,.66-12.03-12.46,.69-.66,2.07,2.15,15.68-15.14-.26-4.48,14.53,7.31-4.3,4.15c5.1,.47,9.18,1.34,12.01,4.26,3.53,3.65,3.08,7.74-1.31,11.97l-14.78,14.27,2.07,2.15Z"/><path class="g" d="M347.88,820.41l-7.05,6.8h-.08c-.75-3.18-2.07-7.22-3.51-9.57,.45,3.47-.88,6.83-3.71,9.57-4.85,4.69-11.95,4.65-17.68-1.28-2.32-2.41-3.75-5.18-4.25-7.93-2.86,1.94-3.38,5.01,.23,8.75l4.77,4.94c4.81,4.98,5.88,9.18,2.14,12.79-4.9,4.73-13.22,2.47-20.86-5.43-6.1-6.32-7.8-10.66-5.09-13.27,1.29-1.24,3.45-1.33,5.87-.19,.03-1.86,.91-3.53,2.45-5.02,2.36-2.28,5.38-3.29,10.41-3.24-.41-3.34,.71-6.66,3.5-9.36,4.73-4.56,11.99-4.61,18.01,1.62,2.2,2.28,3.55,4.71,4.06,7.12,3.49,1.12,6.97,2.32,10.79,3.61v.08Zm-49.18,5.65c-3,4.89-1.53,10.11,2.7,14.49,3.19,3.31,6.93,4.77,8.52,3.23,.99-.95,.3-2.7-2.98-6.09l-4.48-4.64c-2.45-2.54-3.63-4.88-3.76-6.99Zm24.89,1.62c1.37-1.33,2.82-4.22,4.3-9.13,2.06-6.89,2.07-9.81,.79-11.14-.87-.9-2.31-1.01-3.51,.15-1.5,1.45-2.78,4.34-4.3,9.13-2.19,6.93-1.99,9.89-.74,11.18,.95,.99,2.22,1.01,3.47-.19Z"/><path class="g" d="M325.37,844.14l2.07,2.15,15.68-15.14-.26-4.48,14.53,7.31-21.65,20.91,2.07,2.15-.69,.66-12.45-12.89,.69-.66Zm28.82-24.59c2.84-2.74,6.43-2.89,9.37,.16,2.95,3.05,2.67,6.64-.16,9.37-2.88,2.78-6.47,2.93-9.42-.12-2.95-3.05-2.67-6.64,.21-9.42Z"/><path class="g" d="M365.08,885.25l-.69,.66-12.03-12.46,.69-.66,1.66,1.72,12.93-12.49c3.35-3.24,3.68-5.13,1.98-6.89-.83-.86-1.92-1.47-3.13-1.96l-16.76,16.18,1.66,1.72-.69,.66-12.03-12.46,.69-.66,2.07,2.15,15.68-15.14-.26-4.48,14.53,7.31-4.3,4.15c5.1,.47,9.18,1.34,12.01,4.26,3.53,3.65,3.08,7.74-1.31,11.97l-14.78,14.27,2.07,2.15Z"/><path class="g" d="M412.81,887.65l-7.05,6.8h-.08c-.75-3.18-2.07-7.22-3.51-9.57,.45,3.47-.88,6.83-3.71,9.57-4.85,4.69-11.95,4.65-17.68-1.28-2.32-2.41-3.75-5.18-4.25-7.93-2.86,1.94-3.38,5.01,.23,8.75l4.77,4.94c4.81,4.98,5.88,9.18,2.14,12.79-4.9,4.73-13.22,2.47-20.86-5.43-6.1-6.32-7.8-10.66-5.09-13.27,1.29-1.24,3.45-1.33,5.87-.19,.03-1.86,.91-3.53,2.45-5.02,2.36-2.28,5.38-3.29,10.41-3.24-.41-3.34,.71-6.66,3.5-9.36,4.73-4.56,11.99-4.61,18.01,1.62,2.2,2.28,3.55,4.71,4.06,7.12,3.49,1.12,6.97,2.32,10.79,3.61v.08Zm-49.18,5.65c-3,4.89-1.53,10.11,2.7,14.49,3.19,3.31,6.93,4.77,8.52,3.23,.99-.95,.3-2.7-2.98-6.09l-4.48-4.64c-2.45-2.54-3.63-4.88-3.76-6.99Zm24.89,1.62c1.37-1.33,2.82-4.22,4.3-9.13,2.06-6.89,2.07-9.81,.79-11.14-.87-.9-2.31-1.01-3.51,.15-1.5,1.45-2.78,4.34-4.3,9.13-2.19,6.93-1.99,9.89-.74,11.18,.95,.99,2.22,1.01,3.47-.19Z"/></g><g><path class="g" d="M307.74,872.79l-1.67,1.78c-3.45-2.52-7.07-5.21-9.69-7.18l1.59-2.09,1.11,.88,4.87-4.7,1.53,1.58-4.65,4.49,1.47,1.13,5.51-5.32-2.71-2.81,9.7-9.36,1.84,1.91c.74-.42,1.61-.96,2.18-1.39l1.73,2.36c-.76,.31-1.48,.62-2.15,.85l3.24,3.36-4.32,4.17-5.17-5.35-.92,.89,5.25,5.44-4.45,4.3-2.58-2.68-1.67,1.61,2.71,2.81-1.6,1.55-2.71-2.81-1.97,1.91,3.55,2.67Zm8.35-7.38l10.32,10.68-3.09,2.99-1.67-1.73,1.56-1.5-2.67-2.76-1.93,1.86,3.64,3.77-4.89,4.72c-.77,.74-1.29,1.03-2.08,.78-.71-.25-1.43-.95-2.4-1.96,.42-.53,.86-1.3,1.09-1.94,.55,.61,1.04,1.12,1.23,1.31,.15,.15,.28,.16,.45-.01l3.27-3.16-1.91-1.97-6.76,6.52-1.8-1.86,6.76-6.52-1.8-1.86-5.13,4.96-1.69-1.75,6.73-6.5,3.5,3.62,1.93-1.86-2.56-2.65-1.56,1.5-1.61-1.67,3.09-2.99Zm-7.86-4.54l3.6,3.73,1.49-1.44-3.6-3.73-1.49,1.44Zm6.76-6.52l-1.4,1.36,3.52,3.64,1.4-1.36-3.52-3.64Zm16.8,17.4l-1.45,1.4-1.78-1.84-2.57,2.48-7.92-8.2,1.43-1.38,6.14,6.36,1.14-1.1-7.54-7.81,1.45-1.4,7.54,7.81,1.1-1.06-6.08-6.3,1.47-1.42,7.86,8.14-2.57,2.48,1.78,1.84Z"/><path class="g" d="M342.98,901.56s-.5,.44-.74,.63c-4.36,3.83-6.13,5.11-7.14,5.16-.73,.07-1.25-.15-1.78-.61-.47-.35-1.17-1.08-1.82-1.84,.22-.26,.46-.57,.64-.92l-.69-.27c.07-.24,.14-.56,.21-.92-3.63-3.19-7.35-6.51-10-8.95l1.23-1.49c1.44,1.36,3.31,3.12,5.33,4.99l.9-.87-3.83-3.97,1.97-1.91c-.58-.12-1.14-.21-1.72-.42,.08-.62,.09-1.7-.05-2.33-2.31,1.6-4.75,2.94-7.14,3.63-.03-.69-.42-2.06-.71-2.71,5.2-1.51,10.26-6.1,13.71-9.42l6.47-6.25,16.33,16.91-4.01,3.88-1.4-1.45-.39,1.48c-1.5-.67-3.33-1.96-4.5-2.9l.45-1.29c1.11,.8,3.03,1.82,4.23,2.49l-12.82-13.27-2.43,2.35c-2.06,1.99-4.78,4.44-7.75,6.51,2.38,.8,4.6,1.03,6.41,.84l-2.1-2.17,2.96-2.86,13.18,13.65-2.96,2.86-9.07-9.39c-.43,.08-.84,.14-1.28,.17l10.29,10.66Zm-12.97-5.96l.88-.85-2.35-2.43-.88,.85,2.35,2.43Zm.43-4.61c-.52,0-1.03-.06-1.57-.13l2.92,3.03,.75-.72-2.1-2.17Zm1.47,9.73c0-.3,.01-.6,.02-.86l.75,.29-1.89-1.95-.79,.76,1.91,1.76Zm2.97-1.85l-2.31-2.39-.88,.85,2.31,2.39,.88-.85Zm-2.49-11.67l2.22,2.3,1.1-1.06-2.22-2.3-1.1,1.06Zm1.78-4.65c1.13,.86,2.77,2.08,4.51,3.31-.56-1.24-1.59-2.96-2.66-4.42l1.3-.58c1.18,1.53,2.32,3.32,2.9,4.54l-1.39,.58,1.02,.71-1.08,1.08c-1.92-1.28-4.01-2.66-5.48-3.7l.87-1.52Zm-.48,18.65c-.02,.99-.08,2.07-.27,2.89,.15,.15,.28,.29,.38,.4,.23,.24,.43,.35,.77,.31,.58-.1,2.02-1.06,5.37-3.96l-5.74-5.95-.75,.72,3.83,3.97-2.68,2.58-.93-.97Zm2.44-10.11l2.31,2.39,1.1-1.06-2.31-2.39-1.1,1.06Zm2.22-14.69l-1.25,1.21,12.52,12.96,1.25-1.21-12.52-12.96Zm.45,12.75l3.18-3.07,1.82,1.89-3.18,3.07-1.82-1.89Zm1.17,5.91l2.37,2.46,1.1-1.06-2.37-2.46-1.1,1.06Zm3.38-4.36c1.33,1.68,2.63,3.65,3.26,5l-1.46,.64c-.62-1.35-1.84-3.4-3.04-5.04l1.24-.6Z"/></g></g></g></svg>