<?xml version="1.0" encoding="UTF-8"?><svg xmlns="http://www.w3.org/2000/svg" viewBox="0 0 1920 1080"><defs><style>.c{fill:#eab940;}.d{fill:#90a29e;}.e{fill:#b06349;}.f{fill:#405740;}.g{fill:#3e3a39;}.h{fill:#9a9a4c;}.i{fill:#567857;}</style></defs><g id="a"><rect class="f" x="-14.67" y="-19.04" width="1948.81" height="1118.52"/></g><g id="b"><circle class="i" cx="1627.05" cy="800.29" r="245.06"/><circle class="e" cx="552.46" cy="301.3" r="211.77"/><path class="h" d="M1759.34,317.62l-36.62,7.96-7.96-36.63c-7.02-32.3-34.23-54.06-60.47-48.35-26.22,5.7-41.92,36.78-34.9,69.08l7.96,36.63-36.64,7.97c-32.29,7.02-54.06,34.23-48.36,60.45,5.7,26.22,36.8,41.93,69.09,34.91l36.64-7.97,7.96,36.63c7.02,32.3,34.22,54.07,60.43,48.37,26.23-5.7,41.96-36.8,34.93-69.1l-7.96-36.63,36.62-7.96c32.3-7.02,54.06-34.22,48.36-60.44-5.7-26.22-36.79-41.94-69.09-34.92"/><path class="c" d="M96.99,737.03l56.65,56.64-56.66,56.66c-49.96,49.96-57.62,124.03-17.04,164.6,40.55,40.54,114.58,32.85,164.54-17.11l56.66-56.66,56.68,56.67c49.95,49.94,124.02,57.63,164.57,17.08,40.56-40.56,32.85-114.62-17.09-164.57l-56.68-56.67,56.65-56.66c49.96-49.96,57.66-124.01,17.12-164.56-40.57-40.57-114.66-32.9-164.62,17.07l-56.65,56.66-56.65-56.64c-49.95-49.95-124.01-57.64-164.56-17.08-40.55,40.56-32.87,114.62,17.08,164.57"/><path class="d" d="M1451.3,246.56c125.17,155.24,42.53,388.49-153.51,428.74-108.38,22.25-182.19,81.2-224.72,183.86-50.18,121.12-177.94,187.56-301.99,161.45-125.98-26.52-216.6-135.72-217.15-261.68-.58-131.22,88.17-241.62,218.49-267.32,107.5-21.2,179.76-81.58,222.45-182,80.82-190.1,327.03-223.55,456.44-63.05Z"/><g><g><path class="g" d="M1462.56,905.67h3.76v-30.57l-4.19-2.54h18.72l-4.19,2.54v30.57h3.76v.75h-17.87v-.75Z"/><path class="g" d="M1511.84,905.67v.75h-13.64v-.75h1.88v-14.15c0-3.67-.89-4.89-2.82-4.89-.94,0-1.88,.28-2.82,.71v18.34h1.88v.75h-13.64v-.75h2.35v-17.16l-2.68-2.3,12.09-4.23v4.7c3.06-2.63,5.78-4.47,8.98-4.47,4,0,6.07,2.49,6.07,7.29v16.18h2.35Z"/><path class="g" d="M1513.86,895.14c.05-6.91,4.98-12.7,12.98-12.7,2.68,0,5.03,.38,8.09,1.5l-1.83,13.12h-.05c-4.37-8.28-8.46-12.79-11.29-12.79-1.18,0-1.88,.85-1.88,2.54,0,7.57,7.43,15.57,14.06,15.57,.61,0,.99-.05,1.41-.19l.05,.05c-2.12,3.2-5.55,4.66-9.73,4.66-6.4,0-11.85-4.51-11.8-11.76Z"/><path class="g" d="M1537.28,905.67h2.35v-27.98l-2.68-2.3,12.09-4.23v34.52h2.35v.75h-14.11v-.75Z"/><path class="g" d="M1581.39,905.67v.75h-11.76v-3.62c-3.1,2.26-5.78,4.14-8.42,4.14-4.23,0-6.07-2.45-6.07-8.04v-10.11l-2.68-2.3,12.09-4.23v14.77c0,3.95,.33,5.5,2.68,5.5,.75,0,1.6-.19,2.4-.47v-13.5l-2.68-2.3,12.09-4.23v23.65h2.35Z"/><path class="g" d="M1583.41,905.67l1.46-7.67h.05l5.83,7.81c.66,.19,.99,.24,1.55,.24,2.07,0,3.48-1.08,3.48-3.01,0-1.41-.85-2.21-2.82-3.25l-3.1-1.65c-3.9-2.07-5.78-4.28-5.78-7.85,0-4.75,3.86-7.85,10.11-7.85,3.06,0,5.5,.52,7.81,1.36l-1.83,7.43h-.05l-5.46-7.76c-.23-.09-.56-.14-.8-.14-2.07,0-3.1,1.18-3.1,2.49,0,1.65,.75,2.82,3.53,4.28l3.53,1.88c3.25,1.74,4.94,4.09,4.94,7.01,0,4.89-4.94,7.9-10.72,7.9-2.21,0-5.31-.23-8.61-1.22Z"/><path class="g" d="M1604.33,905.67h2.35v-17.16l-2.68-2.3,12.09-4.23v23.7h2.35v.75h-14.11v-.75Zm1.83-29.77c0-3.1,1.88-5.22,5.22-5.22s5.22,2.12,5.22,5.22-1.88,5.27-5.22,5.27-5.22-2.12-5.22-5.27Z"/><path class="g" d="M1620.93,894.53c0-6.72,5.27-12.09,12.93-12.09s13.36,4.7,13.36,12.09c0,6.87-4.37,12.37-13.31,12.37-6.77,0-12.98-4.8-12.98-12.37Zm20.17,8.28c0-3.95-7.9-18.67-12.04-18.67-1.18,0-1.88,.85-1.88,2.3,0,4.61,8.14,18.76,11.99,18.76,1.27,0,1.93-.8,1.93-2.4Z"/><path class="g" d="M1678.91,905.67v.75h-13.64v-.75h1.88v-14.15c0-3.67-.89-4.89-2.82-4.89-.94,0-1.88,.28-2.82,.71v18.34h1.88v.75h-13.64v-.75h2.35v-17.16l-2.68-2.3,12.09-4.23v4.7c3.06-2.63,5.78-4.47,8.98-4.47,4,0,6.07,2.49,6.07,7.29v16.18h2.35Z"/></g><g><path class="g" d="M1639.74,876.73c2.05,0,2.36-.48,2.62-2.86,.58,.36,1.52,.67,2.17,.79-.41,3.25-1.25,4.16-4.67,4.16h-8.52c-4.02,0-5.2-.72-5.2-3.71v-10.09c-.65,.7-1.35,1.37-2.02,1.93-.39-.41-1.3-1.3-1.85-1.66,2.62-1.9,4.98-4.96,6.36-8.16l2.26,.65c-.38,.89-.82,1.78-1.32,2.62h12.98s-.02,.7-.02,.99c-.26,7.75-.48,10.57-1.16,11.44-.46,.63-.91,.82-1.61,.92-.63,.1-1.66,.1-2.77,.05-.02-.63-.26-1.57-.58-2.12,.94,.1,1.81,.12,2.22,.1,.31,.02,.55-.05,.77-.34,.38-.53,.63-2.82,.84-8.91h-12.06c-.53,.75-1.11,1.49-1.69,2.14h9.58v7.34h-7.7v3.11c0,1.32,.41,1.61,2.94,1.61h8.45Zm-11.39-10.09v3.37h5.51v-3.37h-5.51Z"/><path class="g" d="M1659.19,865.18c-.14,.22-.26,.43-.41,.65,2.7,2.91,5.99,4.74,9.8,6.16-.53,.48-1.13,1.23-1.42,1.88-.99-.43-1.93-.89-2.82-1.37v6.76h-2.29v-.67h-9.1v.75h-2.19v-6.57c-.94,.53-1.93,1.01-2.91,1.4-.31-.55-.91-1.32-1.42-1.81,4.41-1.56,8.57-4.43,10.81-7.99l1.95,.82Zm-9.51-1.18h-2.19v-4.67h9.08c-.24-.6-.53-1.23-.82-1.78l2.31-.51c.41,.67,.87,1.57,1.13,2.29h8.38v4.67h-2.26v-2.65h-15.62v2.65Zm5.8-1.08c-1.54,2.09-3.97,4.12-6.16,5.32-.31-.41-1.08-1.28-1.54-1.69,2.12-1.01,4.31-2.65,5.61-4.33l2.09,.7Zm6.57,13.7v-3.37h-9.1v3.37h9.1Zm.22-5.34c-1.69-1.08-3.23-2.34-4.7-3.92-1.25,1.47-2.72,2.79-4.36,3.92h9.05Zm-1.42-9.03c2.09,1.23,4.82,3.15,6.14,4.5l-1.61,1.47c-1.25-1.35-3.9-3.37-6.07-4.72l1.54-1.25Z"/></g></g><g><g><path class="g" d="M757.45,896.25c8.59,10.99,5.72,23.1-6.53,32.66l-15.35,12-.58-.74,3.71-2.9-23.56-30.15-6.09,.72,16.37-12.79c12.2-9.53,23.75-9.37,32.02,1.21Zm-10.63,8.38c-7.94-10.16-15.61-12.91-21.69-8.16l-1.16,.91,24.93,31.91,.74-.58c5.98-4.68,5.22-13.79-2.83-24.08Z"/><path class="g" d="M751.38,880.08c-2.39-3.06-2.17-6.6,1.13-9.17,3.29-2.57,6.78-1.93,9.17,1.13,2.43,3.11,2.2,6.65-1.09,9.22-3.29,2.57-6.78,1.94-9.21-1.17Zm21.13,30.78l2.32-1.81-13.23-16.93-4.42-.21,8.66-13.49,18.27,23.38,2.32-1.81,.58,.74-13.92,10.87-.58-.74Z"/><path class="g" d="M796.98,856.32l-1.33,4.7,6.18,29.23-1.21,.94-26.36-13.47-4.88,.15,16.19-12.65-1.33,4.7,14.29,8.93-5.25-15.99-5.02,.26,8.72-6.81Z"/><path class="g" d="M831.38,859.33c.37,4.49-1.43,8.59-5.75,11.96-6.54,5.11-15.47,4.77-21.09-2.42-5.29-6.77-5.13-15.94,2.29-21.73,4.36-3.41,9.37-3.21,12.01,.18,3.01,3.85,2.68,9.56-1.25,15.99,4.67,.53,9.35-.36,12.46-2.79,.46-.36,.89-.77,1.24-1.19h.08Zm-27.35-2.97c3.01,3.85,8.05,6.19,13.08,6.89,0-2.68-.94-4.94-2.79-7.31-3.15-4.04-8.52-5.37-10.52-3.81-1.21,.94-1.1,2.51,.24,4.22Z"/><path class="g" d="M837.84,823.06l9.6,12.29-.05,.04c-8.99-1.57-12.11-1.07-13.52,.48l13.12,16.79,3.48-2.72,.58,.74-15.08,11.78-.58-.74,2.32-1.81-13.16-16.84-4.42-.21,8.8-13.3,4.53,5.8c-.07-5.55,1.24-10.08,3.37-11.75,.32-.25,.64-.43,.99-.55Z"/><path class="g" d="M858.04,844.03l-4.47-8.68,.05-.04,11.77,3.21c.79-.32,1.16-.53,1.71-.96,2.04-1.59,2.6-3.75,1.11-5.65-1.09-1.39-2.54-1.53-5.28-1.03l-4.33,.77c-5.44,.97-9,.24-11.76-3.29-3.66-4.69-2.25-10.72,3.92-15.54,3.01-2.36,5.83-3.73,8.75-4.67l3.92,8.74-.05,.04-11.36-3.45c-.3,.09-.66,.3-.9,.48-2.04,1.59-2.15,3.55-1.14,4.85,1.27,1.62,2.92,2.2,6.78,1.5l4.93-.86c4.54-.78,8.02,.23,10.27,3.11,3.77,4.82,1.22,11.6-4.49,16.06-2.18,1.7-5.42,3.86-9.43,5.43Z"/><path class="g" d="M857.55,797.13c-2.39-3.06-2.17-6.6,1.13-9.17,3.29-2.57,6.78-1.94,9.17,1.13,2.43,3.11,2.2,6.65-1.09,9.22-3.29,2.57-6.78,1.93-9.21-1.17Zm21.13,30.78l2.32-1.81-13.23-16.93-4.42-.21,8.66-13.49,18.26,23.38,2.32-1.81,.58,.74-13.92,10.87-.58-.74Z"/><path class="g" d="M911.22,796.8c.42,4.08-1.08,8.46-5.35,11.8-5.52,4.31-10.24,2.77-14.95-3.26l-10.29-13.17-3.57,2.79-.04-.05,4.95-20.15,7.36,9.42,6.54-5.11,.58,.74-6.54,5.11,8.44,10.81c4.2,5.38,7.01,6.4,10.45,3.72,1.02-.8,1.7-1.55,2.34-2.65h.08Z"/><path class="g" d="M924.68,756.56l-1.33,4.7,5.92,28.32,3.94,16.42-13.63,.72,8.68-16.72-26.75-11.67-4.93,.19,16.28-12.72-1.33,4.7,14.68,8.18-5.17-15.61-5.35,.52,9-7.03Z"/></g><g><path class="g" d="M891.74,832.46c1.06,6.32-2.42,13.13-6.72,18.26-.51-.34-1.42-.76-2-.88,2-2.21,3.78-4.82,5.04-7.51-1.26-.05-3.02,.13-4.49,.39-.45,.99-.97,2.01-1.58,3.07-.57-.23-1.6-.4-2.2-.39,2.46-3.73,3.56-7.33,3.6-9.9l2.3-1.09c-.05,.65-.11,1.31-.21,1.96l4.36-3.41,.23-.3,1.67-.21Zm-6.91,6.8c-.13,.46-.29,.96-.47,1.43,1.56-.31,3.37-.5,4.53-.46,.58-1.64,.92-3.32,.94-4.89l-5.01,3.91Zm14.74-2.26c1.98,7.34-1.9,14.07-7.48,19.87-.48-.38-1.4-.86-2.02-1.02,2.61-2.56,4.84-5.34,6.25-8.27-1.39-.1-3.43,0-5.06,.25-.57,1.15-1.23,2.34-2,3.55-.5-.25-1.53-.51-2.13-.54,2.98-4.28,4.3-8.34,4.35-11.28l2.31-1.07c-.04,.77-.12,1.53-.25,2.34l4.12-3.22,.24-.31,1.67-.29Zm-6.72,6.81c-.2,.65-.41,1.27-.66,1.92,1.66-.26,3.67-.42,5.01-.31,.6-1.81,.86-3.67,.64-5.51l-4.99,3.9Z"/><path class="g" d="M912.62,817.76l-13.36,10.43-1.33-1.71,13.36-10.43,1.33,1.71Zm9.05,12.76c.7-.55,.43-1.13-1.69-4,.67,0,1.67-.29,2.24-.53,2.37,3.43,2.65,4.72,.88,6.09l-2.52,1.97c-1.88,1.47-2.83,1.26-4.28-.59l-4.95-6.34-3.24,2.53c2.79,4.27,4.5,8.22,1.43,13.48-.55-.31-1.55-.53-2.21-.56,2.81-4.58,1.25-7.91-1.1-11.46l-4.57,3.57-1.33-1.71,16.68-13.03,1.33,1.71-5.16,4.03,4.94,6.32c.53,.68,.74,.71,1.42,.17l2.14-1.67Z"/></g></g><g><g><path class="g" d="M232.85,735.21c-4.06,3.92-10.78,2.18-16.82-4.08l-13.31-13.78,.55-.53,2.66,2.75,22.34-21.58-1.1-4.85,11.98,12.41c6.54,6.77,8.57,12.59,4.75,16.27-2.92,2.82-6.97,2.48-13.14-1.99,4.87,5.73,5.98,11.63,2.1,15.38Zm-7.74-7.81c4.26-4.12,4.2-8.37,1.41-11.26l-.93-.96-12.37,11.95,.7,.72c3.68,3.82,7.17,3.44,11.19-.45Zm11.76-23.11l-10.72,10.36,.6,.62c2.69,2.78,5.77,2.26,9.28-1.12,2.96-2.85,4.47-6.11,1.38-9.3l-.53-.55Z"/><path class="g" d="M246.83,756.85c-3.59,.68-7.06-.43-10.14-3.62-4.68-4.85-5.16-12.09,.17-17.23,5.02-4.85,12.43-5.49,17.74,0,3.12,3.23,3.39,7.29,.88,9.71-2.85,2.75-7.49,2.98-13.02,.35-.03,3.82,1.09,7.52,3.31,9.82,.33,.34,.7,.65,1.07,.9v.07Zm.08-22.34c-2.85,2.76-4.31,7.02-4.45,11.14,2.17-.23,3.91-1.18,5.66-2.88,2.99-2.89,3.61-7.34,2.18-8.82-.86-.89-2.12-.68-3.39,.55Z"/><path class="g" d="M245.25,760.3l1.66,1.72,20.45-19.75-.21-3.59,11.62,5.85-25.23,24.36,1.66,1.72-.55,.53-9.96-10.31,.55-.53Z"/><path class="g" d="M264.78,764.22c4.92-4.75,12.55-4.68,17.96,.92,5.48,5.67,5.99,13.08,.59,18.29-5.02,4.85-12.13,5.53-18.43-1-4.78-4.95-5.66-12.87-.12-18.22Zm8.19,20.59c2.89-2.79,8.07-18.95,5.15-21.98-.83-.86-1.95-.78-3.01,.25-3.37,3.25-7.97,19.19-5.25,22.01,.9,.93,1.95,.84,3.11-.28Z"/><path class="g" d="M297.56,814.47l-.55,.53-9.63-9.97,.55-.53,1.33,1.37,10.35-9.99c2.68-2.59,2.94-4.11,1.58-5.51-.66-.69-1.53-1.18-2.51-1.56l-13.41,12.95,1.33,1.37-.55,.53-9.63-9.97,.55-.53,1.66,1.72,12.55-12.11-.21-3.59,11.62,5.85-3.44,3.32c4.08,.38,7.35,1.08,9.6,3.41,2.82,2.92,2.46,6.19-1.05,9.58l-11.82,11.42,1.66,1.72Z"/><path class="g" d="M335.75,816.38l-5.64,5.44h-.07c-.6-2.55-1.66-5.78-2.81-7.65,.36,2.78-.7,5.46-2.97,7.65-3.88,3.75-9.56,3.72-14.14-1.02-1.86-1.92-3-4.14-3.4-6.34-2.29,1.55-2.71,4.01,.18,7l3.82,3.95c3.85,3.99,4.7,7.35,1.71,10.24-3.92,3.78-10.58,1.98-16.68-4.35-4.88-5.05-6.24-8.52-4.07-10.61,1.03-1,2.76-1.07,4.7-.16,.03-1.49,.73-2.82,1.96-4.02,1.89-1.83,4.3-2.63,8.32-2.59-.32-2.68,.57-5.33,2.8-7.49,3.78-3.65,9.59-3.69,14.41,1.3,1.76,1.82,2.84,3.77,3.25,5.7,2.79,.89,5.58,1.85,8.63,2.89v.07Zm-39.35,4.52c-2.4,3.91-1.22,8.09,2.16,11.59,2.56,2.65,5.54,3.81,6.81,2.59,.79-.76,.24-2.16-2.38-4.87l-3.58-3.71c-1.96-2.03-2.91-3.9-3.01-5.59Zm19.91,1.29c1.1-1.06,2.26-3.37,3.44-7.31,1.65-5.51,1.66-7.84,.63-8.91-.7-.72-1.84-.81-2.81,.12-1.2,1.16-2.22,3.48-3.44,7.31-1.75,5.54-1.59,7.91-.6,8.94,.76,.79,1.78,.81,2.77-.15Z"/><path class="g" d="M317.74,835.36l1.66,1.72,12.55-12.12-.21-3.59,11.62,5.85-17.32,16.73,1.66,1.72-.55,.53-9.96-10.31,.55-.53Zm23.05-19.67c2.27-2.19,5.14-2.31,7.5,.13,2.36,2.44,2.14,5.31-.13,7.5-2.3,2.22-5.18,2.34-7.53-.1-2.36-2.44-2.14-5.31,.17-7.53Z"/><path class="g" d="M349.5,868.25l-.55,.53-9.63-9.97,.55-.53,1.33,1.37,10.35-9.99c2.68-2.59,2.94-4.11,1.58-5.51-.66-.69-1.53-1.17-2.51-1.56l-13.41,12.95,1.33,1.37-.55,.53-9.63-9.97,.55-.53,1.66,1.72,12.55-12.12-.21-3.59,11.62,5.85-3.44,3.32c4.08,.38,7.35,1.07,9.6,3.41,2.82,2.92,2.46,6.19-1.05,9.58l-11.82,11.42,1.66,1.72Z"/><path class="g" d="M387.69,870.17l-5.64,5.44h-.07c-.6-2.55-1.66-5.78-2.81-7.65,.36,2.78-.7,5.46-2.97,7.65-3.88,3.75-9.56,3.72-14.14-1.02-1.86-1.92-3-4.14-3.4-6.34-2.29,1.55-2.71,4.01,.18,7l3.82,3.95c3.85,3.99,4.7,7.35,1.71,10.24-3.92,3.78-10.58,1.98-16.68-4.35-4.88-5.05-6.24-8.52-4.07-10.61,1.03-1,2.76-1.07,4.7-.16,.03-1.49,.73-2.82,1.96-4.02,1.89-1.83,4.3-2.63,8.32-2.59-.33-2.68,.57-5.33,2.8-7.49,3.78-3.65,9.59-3.68,14.41,1.3,1.76,1.82,2.84,3.77,3.25,5.7,2.79,.89,5.58,1.85,8.63,2.89v.07Zm-39.35,4.52c-2.4,3.91-1.22,8.09,2.16,11.59,2.56,2.65,5.54,3.81,6.81,2.59,.79-.76,.24-2.16-2.38-4.87l-3.58-3.71c-1.96-2.03-2.91-3.9-3.01-5.59Zm19.91,1.29c1.1-1.06,2.26-3.37,3.44-7.31,1.65-5.51,1.66-7.84,.63-8.91-.7-.72-1.84-.81-2.81,.12-1.2,1.16-2.22,3.48-3.44,7.31-1.75,5.55-1.59,7.91-.6,8.95,.76,.79,1.78,.81,2.77-.16Z"/></g><g><path class="g" d="M303.64,858.29l-1.34,1.43c-2.76-2.02-5.66-4.17-7.75-5.74l1.27-1.67,.88,.71,3.9-3.76,1.22,1.26-3.72,3.59,1.17,.9,4.4-4.25-2.17-2.25,7.76-7.49,1.47,1.53c.59-.33,1.29-.77,1.75-1.11l1.38,1.89c-.61,.25-1.18,.5-1.72,.68l2.59,2.68-3.46,3.34-4.13-4.28-.74,.71,4.2,4.35-3.56,3.44-2.07-2.14-1.33,1.29,2.17,2.25-1.28,1.24-2.17-2.25-1.58,1.52,2.84,2.14Zm6.68-5.9l8.25,8.55-2.47,2.39-1.34-1.39,1.25-1.2-2.14-2.21-1.54,1.49,2.91,3.02-3.91,3.78c-.61,.59-1.03,.83-1.67,.63-.57-.2-1.14-.76-1.92-1.57,.34-.43,.69-1.04,.87-1.55,.44,.49,.83,.89,.98,1.05,.12,.12,.22,.13,.36,0l2.61-2.53-1.53-1.58-5.41,5.22-1.44-1.49,5.41-5.22-1.44-1.49-4.11,3.97-1.36-1.4,5.39-5.2,2.8,2.9,1.54-1.49-2.05-2.12-1.25,1.2-1.29-1.33,2.47-2.39Zm-6.29-3.63l2.88,2.98,1.19-1.15-2.88-2.98-1.19,1.15Zm5.41-5.22l-1.12,1.09,2.81,2.91,1.12-1.09-2.81-2.91Zm13.44,13.92l-1.16,1.12-1.42-1.47-2.05,1.98-6.34-6.56,1.14-1.1,4.92,5.09,.91-.88-6.03-6.25,1.16-1.12,6.03,6.25,.88-.85-4.86-5.04,1.18-1.14,6.29,6.51-2.05,1.98,1.42,1.47Z"/><path class="g" d="M331.83,881.3s-.4,.36-.6,.51c-3.49,3.06-4.9,4.09-5.71,4.13-.59,.06-1-.12-1.42-.49-.37-.28-.93-.86-1.46-1.47,.18-.2,.37-.46,.51-.73l-.55-.22c.05-.19,.11-.45,.17-.74-2.91-2.55-5.88-5.21-8-7.16l.99-1.19c1.15,1.09,2.65,2.5,4.26,3.99l.72-.69-3.07-3.18,1.58-1.52c-.46-.09-.91-.17-1.37-.33,.06-.5,.08-1.36-.04-1.86-1.85,1.28-3.8,2.35-5.71,2.9-.03-.55-.33-1.65-.57-2.17,4.16-1.2,8.21-4.88,10.97-7.54l5.18-5,13.07,13.53-3.21,3.1-1.12-1.16-.31,1.19c-1.2-.54-2.66-1.57-3.6-2.32l.36-1.03c.89,.64,2.42,1.46,3.38,1.99l-10.25-10.62-1.95,1.88c-1.65,1.59-3.82,3.56-6.2,5.21,1.9,.64,3.68,.82,5.13,.68l-1.68-1.74,2.37-2.29,10.54,10.92-2.37,2.29-7.25-7.51c-.35,.06-.67,.11-1.02,.14l8.24,8.53Zm-10.37-4.77l.7-.68-1.88-1.95-.7,.68,1.88,1.95Zm.34-3.69c-.41,0-.83-.05-1.26-.11l2.34,2.42,.6-.58-1.68-1.74Zm1.17,7.78c0-.24,0-.48,.01-.69l.6,.24-1.51-1.56-.63,.61,1.53,1.41Zm2.37-1.48l-1.85-1.91-.7,.68,1.85,1.91,.7-.68Zm-1.99-9.33l1.78,1.84,.88-.85-1.78-1.84-.88,.85Zm1.43-3.72c.9,.69,2.21,1.66,3.61,2.65-.45-.99-1.27-2.37-2.13-3.54l1.04-.46c.95,1.22,1.85,2.65,2.32,3.63l-1.11,.46,.82,.57-.86,.86c-1.53-1.03-3.21-2.13-4.38-2.96l.69-1.21Zm-.38,14.92c-.01,.79-.06,1.66-.21,2.31,.12,.12,.22,.23,.31,.32,.19,.19,.34,.28,.62,.25,.47-.08,1.62-.85,4.3-3.17l-4.59-4.76-.6,.58,3.07,3.18-2.14,2.07-.75-.77Zm1.95-8.09l1.85,1.91,.88-.85-1.85-1.91-.88,.85Zm1.78-11.75l-1,.97,10.02,10.37,1-.97-10.02-10.37Zm.36,10.2l2.54-2.46,1.46,1.51-2.54,2.46-1.46-1.51Zm.94,4.73l1.9,1.97,.88-.85-1.9-1.97-.88,.85Zm2.7-3.49c1.06,1.35,2.11,2.92,2.6,4l-1.17,.51c-.5-1.08-1.47-2.72-2.43-4.03l.99-.48Z"/></g></g></g></svg>