<?xml version="1.0" encoding="UTF-8"?><svg id="a" xmlns="http://www.w3.org/2000/svg" viewBox="0 0 1920 1080"><defs><style>.b{fill:#eab940;}.c{fill:#90a29e;}.d{fill:#b06349;}.e{fill:#405740;}.f{fill:#3e3a39;}.g{fill:#9a9a4c;}.h{fill:#567857;}</style></defs><rect class="e" x="-14.67" y="-19.04" width="1948.81" height="1118.52"/><circle class="h" cx="1516.04" cy="836.31" r="210.8"/><circle class="d" cx="629.29" cy="489.87" r="157.54"/><path class="g" d="M1515.74,461.51l-26.77,7.75-7.75-26.77c-6.83-23.61-28.11-38.38-47.29-32.83-19.16,5.55-29.25,29.39-22.41,53l7.75,26.77-26.78,7.75c-23.6,6.83-38.38,28.11-32.83,47.27,5.55,19.17,29.41,29.25,53.01,22.42l26.78-7.75,7.75,26.77c6.83,23.61,28.1,38.39,47.26,32.84,19.17-5.55,29.27-29.41,22.44-53.02l-7.75-26.77,26.77-7.75c23.6-6.83,38.38-28.1,32.83-47.27-5.55-19.17-29.4-29.26-53.01-22.43"/><path class="b" d="M202.24,787.32l48.08,48.08-48.09,48.1c-42.41,42.41-48.91,105.29-14.47,139.73,34.42,34.42,97.27,27.89,139.68-14.53l48.09-48.1,48.11,48.11c42.4,42.4,105.28,48.92,139.7,14.49,34.43-34.43,27.89-97.3-14.51-139.7l-48.11-48.11,48.09-48.09c42.41-42.41,48.95-105.27,14.53-139.69-34.44-34.44-97.33-27.92-139.74,14.49l-48.09,48.09-48.08-48.08c-42.4-42.4-105.27-48.93-139.69-14.5-34.43,34.43-27.9,97.3,14.5,139.7"/><path class="c" d="M1325.43,491.5c85.19,133.61-.6,310.54-158.96,325.07-87.55,8.03-151.02,48.09-193.65,125.42-50.29,91.24-157.03,132.46-252.7,100.92-97.15-32.03-159.1-126.24-148.46-225.76,11.09-103.68,90.9-183.05,196.07-191.88,86.76-7.28,149.14-48.6,191.69-124.15,80.56-143.01,277.94-147.76,366.01-9.62Z"/><g><g><path class="f" d="M1364.92,913.43h4.5v-36.52l-5-3.03h22.36l-5,3.03v36.52h4.49v.9h-21.35v-.9Z"/><path class="f" d="M1423.8,913.43v.9h-16.29v-.9h2.25v-16.91c0-4.38-1.07-5.84-3.37-5.84-1.12,0-2.25,.34-3.37,.84v21.91h2.25v.9h-16.29v-.9h2.81v-20.51l-3.2-2.75,14.44-5.06v5.62c3.65-3.15,6.91-5.34,10.73-5.34,4.78,0,7.25,2.98,7.25,8.71v19.33h2.81Z"/><path class="f" d="M1426.21,900.84c.06-8.26,5.96-15.17,15.51-15.17,3.2,0,6.01,.45,9.66,1.8l-2.19,15.67h-.06c-5.22-9.89-10.11-15.28-13.48-15.28-1.4,0-2.25,1.01-2.25,3.03,0,9.05,8.88,18.6,16.8,18.6,.73,0,1.18-.06,1.69-.22l.06,.06c-2.53,3.82-6.63,5.56-11.63,5.56-7.64,0-14.16-5.39-14.1-14.05Z"/><path class="f" d="M1454.19,913.43h2.81v-33.43l-3.2-2.75,14.44-5.06v41.24h2.81v.9h-16.85v-.9Z"/><path class="f" d="M1506.89,913.43v.9h-14.04v-4.33c-3.71,2.7-6.91,4.94-10.06,4.94-5.06,0-7.25-2.92-7.25-9.61v-12.08l-3.2-2.75,14.44-5.06v17.64c0,4.72,.39,6.57,3.2,6.57,.9,0,1.91-.22,2.87-.56v-16.12l-3.2-2.75,14.44-5.06v28.26h2.81Z"/><path class="f" d="M1509.3,913.43l1.74-9.16h.06l6.97,9.33c.79,.22,1.18,.28,1.85,.28,2.47,0,4.16-1.29,4.16-3.6,0-1.69-1.01-2.64-3.37-3.88l-3.71-1.97c-4.66-2.47-6.91-5.11-6.91-9.38,0-5.67,4.61-9.38,12.08-9.38,3.65,0,6.57,.62,9.33,1.63l-2.19,8.88h-.06l-6.52-9.27c-.28-.11-.67-.17-.96-.17-2.47,0-3.71,1.4-3.71,2.98,0,1.97,.9,3.37,4.21,5.11l4.21,2.25c3.88,2.08,5.9,4.89,5.9,8.37,0,5.84-5.9,9.44-12.81,9.44-2.64,0-6.35-.28-10.28-1.46Z"/><path class="f" d="M1534.3,913.43h2.81v-20.51l-3.2-2.75,14.44-5.06v28.32h2.81v.9h-16.85v-.9Zm2.19-35.56c0-3.71,2.25-6.24,6.24-6.24s6.24,2.53,6.24,6.24-2.25,6.29-6.24,6.29-6.24-2.53-6.24-6.29Z"/><path class="f" d="M1554.13,900.11c0-8.03,6.29-14.44,15.45-14.44s15.96,5.62,15.96,14.44c0,8.2-5.23,14.78-15.9,14.78-8.09,0-15.51-5.73-15.51-14.78Zm24.1,9.89c0-4.72-9.44-22.3-14.38-22.3-1.4,0-2.25,1.01-2.25,2.75,0,5.51,9.72,22.42,14.33,22.42,1.52,0,2.3-.96,2.3-2.87Z"/><path class="f" d="M1623.4,913.43v.9h-16.29v-.9h2.25v-16.91c0-4.38-1.07-5.84-3.37-5.84-1.12,0-2.25,.34-3.37,.84v21.91h2.25v.9h-16.29v-.9h2.81v-20.51l-3.2-2.75,14.44-5.06v5.62c3.65-3.15,6.91-5.34,10.73-5.34,4.78,0,7.25,2.98,7.25,8.71v19.33h2.81Z"/></g><g><path class="f" d="M1576.6,878.86c2.44,0,2.82-.58,3.13-3.42,.69,.43,1.81,.81,2.59,.95-.49,3.88-1.5,4.98-5.58,4.98h-10.18c-4.8,0-6.21-.86-6.21-4.43v-12.05c-.78,.83-1.61,1.64-2.42,2.3-.46-.49-1.55-1.55-2.21-1.98,3.13-2.27,5.95-5.93,7.59-9.75l2.7,.78c-.46,1.06-.98,2.13-1.58,3.14h15.5s-.03,.83-.03,1.18c-.32,9.26-.58,12.63-1.38,13.66-.55,.75-1.09,.98-1.93,1.09-.75,.11-1.98,.11-3.31,.06-.03-.75-.32-1.87-.69-2.53,1.12,.12,2.16,.14,2.65,.12,.37,.03,.66-.06,.92-.4,.46-.63,.75-3.37,1.01-10.64h-14.41c-.63,.89-1.32,1.78-2.01,2.56h11.45v8.77h-9.2v3.71c0,1.58,.49,1.93,3.51,1.93h10.1Zm-13.6-12.05v4.03h6.59v-4.03h-6.59Z"/><path class="f" d="M1599.84,865.05c-.17,.26-.32,.52-.49,.78,3.22,3.48,7.16,5.67,11.71,7.36-.63,.58-1.35,1.47-1.7,2.24-1.18-.52-2.3-1.06-3.37-1.64v8.08h-2.73v-.8h-10.87v.89h-2.62v-7.85c-1.12,.63-2.3,1.21-3.48,1.67-.37-.66-1.09-1.58-1.7-2.16,5.26-1.87,10.24-5.29,12.91-9.55l2.33,.98Zm-11.36-1.41h-2.62v-5.58h10.84c-.29-.72-.63-1.47-.98-2.13l2.76-.6c.49,.81,1.04,1.87,1.35,2.73h10.01v5.58h-2.7v-3.16h-18.67v3.16Zm6.93-1.29c-1.84,2.5-4.75,4.92-7.36,6.36-.37-.49-1.29-1.52-1.84-2.01,2.53-1.21,5.15-3.16,6.7-5.18l2.5,.83Zm7.85,16.37v-4.03h-10.87v4.03h10.87Zm.26-6.39c-2.01-1.29-3.85-2.79-5.61-4.69-1.5,1.75-3.25,3.34-5.21,4.69h10.82Zm-1.7-10.79c2.5,1.47,5.75,3.77,7.33,5.38l-1.93,1.75c-1.5-1.61-4.66-4.03-7.25-5.64l1.84-1.5Z"/></g></g><g><g><path class="f" d="M724.6,914.72c9.08,13.98,4.4,28.08-11.17,38.2l-19.52,12.68-.61-.94,4.72-3.06-24.9-38.34-7.32,.22,20.82-13.52c15.51-10.07,29.25-8.68,37.98,4.77Zm-13.53,8.87c-8.39-12.92-17.23-16.98-24.96-11.97l-1.47,.96,26.35,40.58,.94-.61c7.61-4.94,7.64-15.87-.86-28.96Z"/><path class="f" d="M719.06,894.83c-2.53-3.89-1.89-8.08,2.29-10.8,4.19-2.72,8.27-1.6,10.8,2.3,2.57,3.95,1.93,8.14-2.26,10.86-4.19,2.72-8.27,1.6-10.84-2.35Zm21.95,38.83l2.95-1.92-13.98-21.53-5.24-.71,11.71-15.15,19.31,29.73,2.95-1.92,.61,.94-17.69,11.49-.61-.94Z"/><path class="f" d="M775.81,871.31l-2.07,5.46,4.31,35.44-1.53,1-29.97-18.78-5.83-.32,20.58-13.37-2.07,5.46,16.08,12.11-4.58-19.58-6.01-.21,11.09-7.2Z"/><path class="f" d="M816.43,878.47c-.03,5.38-2.6,10.07-8.08,13.63-8.32,5.4-18.91,4.06-24.85-5.08-5.59-8.61-4.45-19.5,4.99-25.63,5.54-3.6,11.48-2.85,14.28,1.46,3.18,4.9,2.2,11.65-3.15,18.9,5.51,1.12,11.17,.54,15.12-2.02,.59-.38,1.14-.83,1.6-1.29l.1,.02Zm-32.25-6.4c3.18,4.9,8.93,8.2,14.85,9.56,.27-3.2-.61-5.98-2.56-8.99-3.33-5.13-9.59-7.27-12.12-5.63-1.53,1-1.58,2.87-.16,5.05Z"/><path class="f" d="M827.91,835.97l10.15,15.63-.06,.04c-10.54-2.8-14.31-2.53-16.14-.84l13.87,21.35,4.42-2.87,.61,.94-19.17,12.45-.61-.94,2.95-1.92-13.9-21.41-5.24-.71,11.86-14.92,4.79,7.37c.49-6.61,2.52-11.87,5.24-13.63,.41-.27,.81-.44,1.24-.55Z"/><path class="f" d="M849.76,863.04l-4.42-10.8,.06-.04,13.67,5.04c.98-.3,1.43-.51,2.14-.97,2.6-1.69,3.48-4.19,1.91-6.61-1.15-1.77-2.86-2.08-6.18-1.77l-5.23,.46c-6.58,.58-10.74-.66-13.65-5.14-3.87-5.96-1.56-12.99,6.29-18.09,3.83-2.49,7.32-3.83,10.9-4.65l3.75,10.81-.06,.04-13.16-5.29c-.37,.07-.82,.28-1.12,.47-2.6,1.69-2.93,4-1.86,5.65,1.34,2.06,3.24,2.93,7.91,2.5l5.96-.51c5.49-.46,9.53,1.11,11.9,4.77,3.98,6.13,.24,13.93-7.01,18.64-2.77,1.8-6.86,4.03-11.79,5.48Z"/><path class="f" d="M854.06,807.16c-2.53-3.89-1.89-8.08,2.29-10.8,4.19-2.72,8.27-1.6,10.8,2.29,2.57,3.95,1.93,8.14-2.26,10.86-4.19,2.72-8.27,1.6-10.84-2.36Zm21.95,38.83l2.95-1.92-13.98-21.53-5.24-.71,11.71-15.15,19.3,29.73,2.95-1.92,.61,.94-17.69,11.49-.61-.94Z"/><path class="f" d="M917.97,812.36c.08,4.9-2.17,9.96-7.59,13.48-7.02,4.56-12.47,2.23-17.45-5.44l-10.88-16.75-4.54,2.95-.04-.06,7.99-23.47,7.78,11.97,8.32-5.4,.61,.94-8.32,5.4,8.92,13.74c4.44,6.84,7.68,8.34,12.05,5.51,1.3-.84,2.18-1.67,3.06-2.91l.1,.02Z"/><path class="f" d="M938.17,765.87l-2.07,5.46,4.09,34.32,2.98,19.95-16.3-.57,12.07-18.99-30.62-16.68-5.89-.29,20.7-13.44-2.07,5.46,16.62,11.26-4.53-19.11-6.42,.06,11.44-7.43Z"/></g><g><path class="f" d="M891.08,852.77c.6,7.63-4.25,15.38-9.9,21.04-.57-.45-1.61-1.05-2.29-1.26,2.61-2.42,5-5.34,6.78-8.41-1.5-.19-3.6-.16-5.38,0-.64,1.13-1.36,2.29-2.2,3.48-.66-.33-1.86-.65-2.58-.69,3.32-4.18,5-8.36,5.31-11.41l2.85-1.06c-.12,.76-.27,1.54-.45,2.32l5.55-3.6,.3-.33,2.01-.07Zm-8.93,7.38c-.2,.54-.44,1.11-.71,1.66,1.89-.2,4.06-.24,5.44-.07,.86-1.9,1.44-3.85,1.63-5.72l-6.37,4.14Zm17.77-1.15c1.59,8.95-3.73,16.55-10.97,22.87-.54-.51-1.58-1.17-2.3-1.42,3.38-2.78,6.32-5.85,8.3-9.19-1.65-.27-4.08-.37-6.04-.22-.8,1.31-1.71,2.65-2.75,4.01-.57-.35-1.77-.77-2.48-.86,3.99-4.79,5.99-9.48,6.36-12.97l2.86-1.04c-.13,.91-.3,1.81-.54,2.75l5.23-3.4,.32-.35,2.01-.18Zm-8.71,7.4c-.3,.75-.62,1.47-.99,2.22,2-.13,4.41-.12,6,.15,.9-2.09,1.41-4.28,1.34-6.49l-6.34,4.12Z"/><path class="f" d="M917.46,837.46l-16.98,11.03-1.41-2.17,16.98-11.03,1.41,2.17Zm9.44,16.13c.89-.58,.63-1.3-1.59-4.93,.8,.07,2.01-.18,2.73-.4,2.47,4.33,2.66,5.89,.41,7.34l-3.21,2.08c-2.39,1.55-3.5,1.21-5.04-1.15l-5.23-8.06-4.12,2.68c2.87,5.37,4.5,10.25,.3,16.2-.62-.42-1.79-.79-2.57-.9,3.82-5.16,2.31-9.28-.11-13.75l-5.81,3.78-1.41-2.17,21.2-13.77,1.41,2.17-6.56,4.26,5.22,8.03c.56,.87,.8,.92,1.67,.36l2.73-1.77Z"/></g></g><g><g><path class="f" d="M299.52,756.75c-4.78,4.62-12.71,2.57-19.84-4.81l-15.69-16.25,.65-.63,3.13,3.24,26.34-25.44-1.29-5.72,14.13,14.63c7.71,7.98,10.1,14.84,5.6,19.18-3.44,3.33-8.22,2.92-15.5-2.34,5.74,6.75,7.05,13.71,2.47,18.13Zm-9.12-9.2c5.02-4.85,4.95-9.87,1.67-13.28l-1.1-1.13-14.59,14.09,.82,.85c4.34,4.5,8.46,4.05,13.2-.53Zm13.86-27.25l-12.64,12.21,.71,.73c3.17,3.28,6.81,2.67,10.94-1.32,3.48-3.37,5.26-7.2,1.63-10.97l-.63-.65Z"/><path class="f" d="M316.01,782.26c-4.24,.8-8.32-.5-11.96-4.27-5.52-5.71-6.09-14.25,.2-20.32,5.92-5.71,14.65-6.48,20.92,0,3.68,3.81,3.99,8.6,1.04,11.45-3.36,3.25-8.83,3.51-15.35,.41-.04,4.5,1.28,8.87,3.9,11.58,.39,.41,.82,.77,1.26,1.06v.08Zm.1-26.33c-3.36,3.25-5.08,8.28-5.25,13.14,2.55-.27,4.61-1.39,6.67-3.39,3.53-3.4,4.25-8.65,2.57-10.39-1.02-1.05-2.5-.8-4,.65Z"/><path class="f" d="M314.15,786.33l1.96,2.03,24.11-23.28-.24-4.23,13.71,6.89-29.75,28.72,1.96,2.03-.65,.63-11.74-12.16,.65-.63Z"/><path class="f" d="M337.17,790.95c5.79-5.6,14.8-5.52,21.18,1.09,6.46,6.69,7.06,15.42,.7,21.57-5.92,5.71-14.3,6.52-21.73-1.18-5.64-5.83-6.67-15.18-.14-21.48Zm9.66,24.27c3.4-3.29,9.51-22.34,6.07-25.91-.98-1.01-2.29-.92-3.55,.3-3.97,3.83-9.4,22.62-6.19,25.95,1.06,1.09,2.29,1,3.67-.33Z"/><path class="f" d="M375.82,850.19l-.65,.63-11.35-11.75,.65-.63,1.57,1.62,12.2-11.78c3.16-3.05,3.47-4.84,1.87-6.5-.78-.81-1.81-1.39-2.96-1.84l-15.8,15.26,1.56,1.62-.65,.63-11.35-11.75,.65-.63,1.96,2.03,14.79-14.28-.24-4.23,13.7,6.89-4.05,3.91c4.81,.44,8.66,1.27,11.32,4.02,3.33,3.44,2.9,7.3-1.23,11.29l-13.94,13.46,1.96,2.03Z"/><path class="f" d="M420.84,852.45l-6.65,6.42h-.08c-.7-3-1.95-6.81-3.31-9.02,.42,3.27-.83,6.44-3.5,9.02-4.58,4.42-11.27,4.39-16.67-1.21-2.19-2.27-3.54-4.88-4.01-7.48-2.7,1.83-3.19,4.73,.21,8.25l4.5,4.66c4.54,4.7,5.55,8.66,2.02,12.07-4.62,4.46-12.47,2.33-19.67-5.12-5.75-5.96-7.35-10.05-4.8-12.51,1.22-1.17,3.25-1.26,5.54-.18,.03-1.75,.86-3.33,2.31-4.74,2.23-2.15,5.07-3.1,9.81-3.06-.38-3.15,.67-6.28,3.3-8.83,4.46-4.3,11.31-4.34,16.99,1.53,2.07,2.15,3.35,4.44,3.83,6.72,3.29,1.05,6.58,2.19,10.18,3.4v.08Zm-46.39,5.33c-2.83,4.61-1.44,9.54,2.55,13.67,3.01,3.12,6.54,4.5,8.03,3.05,.93-.9,.28-2.55-2.81-5.75l-4.23-4.38c-2.31-2.39-3.43-4.6-3.55-6.6Zm23.48,1.52c1.3-1.25,2.66-3.98,4.05-8.61,1.95-6.5,1.95-9.25,.74-10.51-.82-.85-2.17-.95-3.31,.14-1.42,1.37-2.62,4.1-4.05,8.61-2.07,6.54-1.88,9.33-.7,10.55,.9,.93,2.09,.95,3.27-.18Z"/><path class="f" d="M399.61,874.83l1.96,2.03,14.79-14.28-.25-4.23,13.71,6.89-20.42,19.72,1.96,2.03-.65,.63-11.74-12.16,.65-.63Zm27.18-23.19c2.67-2.58,6.06-2.72,8.84,.15,2.78,2.88,2.52,6.26-.16,8.84-2.71,2.62-6.1,2.76-8.88-.11-2.78-2.88-2.52-6.26,.19-8.88Z"/><path class="f" d="M437.06,913.61l-.65,.63-11.35-11.75,.65-.63,1.56,1.62,12.2-11.78c3.16-3.05,3.47-4.84,1.87-6.5-.78-.81-1.81-1.38-2.96-1.84l-15.8,15.26,1.57,1.62-.65,.63-11.35-11.75,.65-.63,1.96,2.03,14.79-14.28-.25-4.23,13.7,6.89-4.05,3.91c4.81,.44,8.66,1.27,11.32,4.02,3.33,3.45,2.9,7.3-1.23,11.29l-13.94,13.46,1.96,2.03Z"/><path class="f" d="M482.08,915.87l-6.65,6.42h-.08c-.7-3-1.95-6.81-3.31-9.02,.42,3.27-.83,6.44-3.5,9.02-4.58,4.42-11.27,4.39-16.67-1.21-2.19-2.27-3.54-4.88-4.01-7.48-2.7,1.83-3.19,4.73,.21,8.25l4.5,4.66c4.54,4.7,5.55,8.66,2.02,12.07-4.62,4.46-12.47,2.33-19.67-5.12-5.75-5.96-7.35-10.05-4.8-12.51,1.22-1.17,3.25-1.26,5.54-.18,.03-1.75,.86-3.33,2.31-4.74,2.23-2.15,5.07-3.1,9.81-3.06-.38-3.15,.67-6.28,3.3-8.83,4.46-4.3,11.31-4.34,16.99,1.53,2.07,2.15,3.35,4.44,3.83,6.72,3.29,1.05,6.58,2.19,10.18,3.4v.08Zm-46.39,5.33c-2.83,4.61-1.44,9.54,2.55,13.67,3.01,3.12,6.54,4.5,8.03,3.05,.93-.9,.28-2.55-2.81-5.75l-4.23-4.38c-2.31-2.39-3.43-4.6-3.55-6.6Zm23.48,1.52c1.3-1.25,2.66-3.98,4.06-8.61,1.95-6.5,1.95-9.25,.74-10.5-.82-.85-2.17-.96-3.31,.14-1.42,1.37-2.62,4.1-4.05,8.61-2.07,6.54-1.88,9.33-.7,10.55,.9,.93,2.09,.95,3.27-.18Z"/></g><g><path class="f" d="M382.98,901.86l-1.58,1.68c-3.25-2.38-6.67-4.92-9.14-6.77l1.5-1.97,1.04,.83,4.59-4.44,1.44,1.49-4.39,4.24,1.38,1.06,5.19-5.01-2.56-2.65,9.15-8.83,1.74,1.8c.7-.39,1.52-.91,2.06-1.31l1.63,2.23c-.72,.29-1.39,.59-2.03,.8l3.06,3.17-4.08,3.94-4.88-5.05-.87,.84,4.96,5.13-4.2,4.06-2.44-2.52-1.57,1.52,2.56,2.65-1.51,1.46-2.56-2.65-1.86,1.8,3.35,2.52Zm7.87-6.96l9.73,10.08-2.92,2.82-1.58-1.63,1.47-1.42-2.52-2.61-1.82,1.76,3.44,3.56-4.61,4.46c-.72,.7-1.22,.98-1.97,.74-.67-.24-1.35-.9-2.27-1.85,.4-.5,.81-1.23,1.03-1.83,.52,.58,.98,1.05,1.16,1.24,.14,.15,.26,.15,.43-.01l3.08-2.98-1.8-1.86-6.37,6.15-1.7-1.76,6.37-6.15-1.7-1.76-4.84,4.68-1.6-1.66,6.35-6.13,3.3,3.41,1.82-1.76-2.42-2.5-1.47,1.42-1.52-1.57,2.92-2.82Zm-7.41-4.28l3.4,3.52,1.41-1.36-3.4-3.52-1.41,1.36Zm6.37-6.15l-1.32,1.28,3.32,3.43,1.32-1.28-3.32-3.43Zm15.84,16.41l-1.37,1.32-1.68-1.74-2.42,2.34-7.47-7.74,1.34-1.3,5.79,6,1.08-1.04-7.11-7.37,1.37-1.32,7.11,7.37,1.03-1-5.73-5.94,1.39-1.34,7.41,7.68-2.42,2.34,1.68,1.74Z"/><path class="f" d="M416.22,928.99s-.47,.42-.7,.6c-4.11,3.61-5.78,4.82-6.74,4.87-.69,.07-1.18-.14-1.68-.58-.44-.33-1.1-1.02-1.72-1.74,.21-.24,.44-.54,.61-.87l-.65-.25c.06-.22,.13-.53,.2-.87-3.43-3.01-6.93-6.14-9.43-8.44l1.16-1.4c1.36,1.29,3.12,2.94,5.02,4.71l.85-.82-3.62-3.75,1.86-1.8c-.55-.11-1.07-.2-1.62-.39,.07-.59,.09-1.61-.04-2.2-2.18,1.51-4.48,2.77-6.73,3.42-.03-.65-.39-1.94-.67-2.55,4.91-1.42,9.68-5.75,12.93-8.89l6.1-5.89,15.41,15.95-3.79,3.66-1.32-1.37-.37,1.4c-1.41-.63-3.14-1.85-4.24-2.74l.43-1.21c1.04,.75,2.86,1.72,3.99,2.35l-12.09-12.52-2.3,2.22c-1.94,1.88-4.51,4.19-7.31,6.14,2.24,.75,4.34,.97,6.05,.8l-1.98-2.05,2.79-2.7,12.43,12.87-2.79,2.7-8.55-8.86c-.41,.07-.8,.13-1.2,.16l9.71,10.06Zm-12.23-5.62l.83-.8-2.22-2.3-.83,.8,2.22,2.3Zm.4-4.35c-.49,0-.98-.06-1.48-.13l2.76,2.85,.7-.68-1.98-2.05Zm1.39,9.18c0-.28,.01-.57,.01-.81l.71,.28-1.78-1.84-.74,.72,1.8,1.66Zm2.8-1.74l-2.18-2.26-.83,.8,2.18,2.26,.83-.8Zm-2.35-11.01l2.1,2.17,1.03-1-2.1-2.17-1.03,1Zm1.68-4.38c1.06,.81,2.61,1.96,4.26,3.12-.53-1.17-1.5-2.79-2.51-4.17l1.23-.55c1.11,1.44,2.18,3.13,2.73,4.28l-1.31,.55,.96,.67-1.01,1.02c-1.81-1.21-3.78-2.51-5.17-3.49l.82-1.43Zm-.45,17.59c-.02,.94-.07,1.95-.25,2.72,.14,.15,.26,.27,.36,.37,.22,.23,.4,.33,.73,.3,.55-.09,1.91-1,5.07-3.74l-5.41-5.61-.7,.68,3.62,3.75-2.52,2.44-.88-.91Zm2.3-9.54l2.18,2.26,1.03-1-2.18-2.26-1.03,1Zm2.09-13.86l-1.18,1.14,11.81,12.23,1.18-1.14-11.81-12.23Zm.42,12.03l3-2.9,1.72,1.78-3,2.9-1.72-1.78Zm1.1,5.57l2.24,2.32,1.03-1-2.24-2.32-1.03,1Zm3.18-4.11c1.25,1.59,2.48,3.44,3.07,4.71l-1.37,.61c-.59-1.27-1.73-3.2-2.87-4.75l1.17-.57Z"/></g></g></svg>