<?xml version="1.0" encoding="UTF-8"?><svg xmlns="http://www.w3.org/2000/svg" viewBox="0 0 1200 900"><defs><style>.c{fill:#b06349;}.d{fill:#405740;}</style></defs><g id="a"><rect class="c" x="-17.82" y="-13.71" width="1236.05" height="926.42"/></g><g id="b"><path class="d" d="M669.74,410.13h-30.2v-30.21c0-26.64-17.7-48.42-39.33-48.42s-39.3,21.79-39.3,48.42v30.21h-30.22c-26.63,0-48.43,17.7-48.43,39.32s21.8,39.31,48.43,39.31h30.22v30.21c0,26.64,17.69,48.43,39.3,48.43s39.33-21.79,39.33-48.43v-30.21h30.2c26.63,0,48.42-17.69,48.42-39.31s-21.79-39.32-48.42-39.32"/><path class="d" d="M333.6,473.95l-24.49-24.49,24.49-24.49c21.6-21.6,24.91-53.62,7.37-71.16-17.53-17.53-49.53-14.2-71.13,7.4l-24.49,24.49-24.5-24.5c-21.59-21.59-53.61-24.92-71.15-7.38-17.53,17.53-14.21,49.55,7.39,71.14l24.5,24.5-24.49,24.49c-21.6,21.6-24.93,53.61-7.4,71.14,17.54,17.54,49.57,14.22,71.17-7.38l24.49-24.49,24.49,24.49c21.59,21.59,53.61,24.92,71.14,7.39,17.53-17.53,14.21-49.55-7.38-71.15"/><path class="d" d="M1043.33,473.95l-24.49-24.49,24.49-24.49c21.6-21.6,24.91-53.62,7.37-71.16-17.53-17.53-49.53-14.2-71.13,7.4l-24.49,24.49-24.5-24.5c-21.59-21.59-53.61-24.92-71.15-7.38s-14.21,49.55,7.39,71.14l24.5,24.5-24.49,24.49c-21.6,21.6-24.93,53.61-7.4,71.14,17.54,17.54,49.57,14.22,71.17-7.38l24.49-24.49,24.49,24.49c21.59,21.59,53.61,24.92,71.14,7.39,17.53-17.53,14.21-49.55-7.38-71.15"/></g></svg>